<?xml version="1.0" encoding="utf-8"?>
<!-- Generator: Adobe Illustrator 20.1.0, SVG Export Plug-In . SVG Version: 6.00 Build 0)  -->
<svg version="1.1" id="Layer_1" xmlns="http://www.w3.org/2000/svg" xmlns:xlink="http://www.w3.org/1999/xlink" x="0px" y="0px"
	 viewBox="0 0 560 560" style="enable-background:new 0 0 560 560;" xml:space="preserve">
<style type="text/css">
	.st0{fill:#CDB449;}
	.st1{fill:#FFFFFF;stroke:#000000;stroke-width:7;stroke-miterlimit:10;}
</style>
<g>
	<polygon class="st0" points="58.8,413.7 58.8,165.2 274,41 489.2,165.2 489.2,413.7 274,538 	"/>
	<path d="M274,50.2l207.2,119.6v239.3L274,528.7L66.8,409.1V169.8L274,50.2 M274,31.7L50.8,160.6v257.7L274,547.2l223.2-128.9V160.6
		L274,31.7L274,31.7z"/>
</g>
<g>
	<path class="st1" d="M316.7,284.1h-5.5c-3.5,0-6.3-2.8-6.3-6.3V173.1c0-3.5,2.9-6.3,6.3-6.3h5.5c3.5,0,6.3,2.8,6.3,6.3v104.7
		C323,281.3,320.2,284.1,316.7,284.1z"/>
	<path class="st1" d="M347.2,284.1h-5.5c-3.5,0-6.3-2.8-6.3-6.3V173.1c0-3.5,2.9-6.3,6.3-6.3h5.5c3.5,0,6.3,2.8,6.3,6.3v104.7
		C353.6,281.3,350.7,284.1,347.2,284.1z"/>
	<path class="st1" d="M377.7,284.1h-5.5c-3.5,0-6.3-2.8-6.3-6.3V173.1c0-3.5,2.9-6.3,6.3-6.3h5.5c3.5,0,6.3,2.8,6.3,6.3v104.7
		C384.1,281.3,381.2,284.1,377.7,284.1z"/>
	<path class="st1" d="M408.3,284.1h-5.5c-3.5,0-6.3-2.8-6.3-6.3V173.1c0-3.5,2.8-6.3,6.3-6.3h5.5c3.5,0,6.3,2.8,6.3,6.3v104.7
		C414.6,281.3,411.8,284.1,408.3,284.1z"/>
	<path class="st1" d="M284.6,275.2l-2.7-4.7c-1.7-3-0.7-6.9,2.3-8.7l146-84.3c3-1.7,6.9-0.7,8.7,2.3l2.7,4.7c1.7,3,0.7,6.9-2.3,8.7
		l-146,84.3C290.2,279.2,286.3,278.2,284.6,275.2z"/>
</g>
<g>
	<path class="st1" d="M140.3,406.8h-5.5c-3.5,0-6.3-2.9-6.3-6.3V295.8c0-3.5,2.8-6.3,6.3-6.3h5.5c3.5,0,6.3,2.8,6.3,6.3v104.7
		C146.7,403.9,143.8,406.8,140.3,406.8z"/>
	<path class="st1" d="M170.9,406.8h-5.5c-3.5,0-6.3-2.9-6.3-6.3V295.8c0-3.5,2.9-6.3,6.3-6.3h5.5c3.5,0,6.3,2.8,6.3,6.3v104.7
		C177.2,403.9,174.3,406.8,170.9,406.8z"/>
	<path class="st1" d="M201.4,406.8h-5.5c-3.5,0-6.3-2.9-6.3-6.3V295.8c0-3.5,2.9-6.3,6.3-6.3h5.5c3.5,0,6.3,2.8,6.3,6.3v104.7
		C207.7,403.9,204.9,406.8,201.4,406.8z"/>
	<path class="st1" d="M231.9,406.8h-5.5c-3.5,0-6.3-2.9-6.3-6.3V295.8c0-3.5,2.8-6.3,6.3-6.3h5.5c3.5,0,6.3,2.8,6.3,6.3v104.7
		C238.2,403.9,235.4,406.8,231.9,406.8z"/>
	<path class="st1" d="M108.2,397.8l-2.7-4.7c-1.7-3-0.7-6.9,2.3-8.7l146-84.3c3-1.7,6.9-0.7,8.7,2.3l2.7,4.7c1.7,3,0.7,6.9-2.3,8.7
		l-146,84.3C113.8,401.9,109.9,400.9,108.2,397.8z"/>
</g>
</svg>
