<?xml version="1.0" encoding="utf-8"?>
<!-- Generator: Adobe Illustrator 20.1.0, SVG Export Plug-In . SVG Version: 6.00 Build 0)  -->
<svg version="1.1" id="Layer_1" xmlns="http://www.w3.org/2000/svg" xmlns:xlink="http://www.w3.org/1999/xlink" x="0px" y="0px"
	 viewBox="0 0 560 560" style="enable-background:new 0 0 560 560;" xml:space="preserve">
<style type="text/css">
	.st0{fill:#CDB449;}
	.st1{fill:#FFFFFF;}
</style>
<g>
	<polygon class="st0" points="64.8,410.4 64.8,161.9 280,37.6 495.2,161.9 495.2,410.4 280,534.6 	"/>
	<path d="M280,46.9l207.2,119.6v239.3L280,525.4L72.8,405.8V166.5L280,46.9 M280,28.4L56.8,157.3V415L280,543.9L503.2,415V157.3
		L280,28.4L280,28.4z"/>
</g>
<g>
	<g>
		<path class="st1" d="M246.1,419.2c-44.8,0-81.3-36.5-81.3-81.3c0-44.8,36.5-81.3,81.3-81.3l21.8,0c0.4,1.9,0.8,4.6,1.1,6.6
			c1.5,10,2.4,16.1,8.1,16.1c0,0,8,0,8,0c5.2,0,6.3-5,8.5-15.1c0.5-2.2,1.2-5.5,1.8-7.6c27.7,0,62.3,0,90,0c38.3,0,48,0,49.1,0
			c4.9,0.4,10,1,11.2,2.5c1.9,2.3,0.6,11.9-1.1,24c-3.4,3.7-25.1,9.2-41.1,13.3c-40.1,10.1-69.1,18.5-75.8,33.1
			c-0.2,0.4-0.5,1-0.8,1.6c-1.7,3.2-3.1,5.9-3.1,8.5C323.8,385,290.4,419.2,246.1,419.2z"/>
		<path d="M385.3,261.5c37.2,0,47.3,0,49,0c4,0.3,6.2,0.6,7.3,0.9c0.3,3.1-0.7,10.7-1.7,17.6c-1.5,0.8-4.7,2.2-11.3,4.3
			c-7.3,2.3-16.6,4.6-26.3,7.1c-42.8,10.8-71.4,19.2-79.1,35.9c-0.1,0.2-0.4,0.9-0.7,1.3c-1.6,3-3.7,6.8-3.7,10.9
			c0,20.6-7.3,39.5-20.6,53.3c-13.3,13.8-31.8,21.4-52,21.4c-42.1,0-76.3-34.2-76.3-76.3s34.2-76.3,76.3-76.3l1.3,0l16.3,0
			c0.1,0.8,0.2,1.6,0.3,2.4c0.5,3.1,0.9,6.2,1.5,8.8c2.2,9.5,7.5,11.5,11.6,11.5l1.4,0l2.5,0l2.5,0l1.6,0c5.5,0,9.3-3.6,11.4-10.7
			c0.7-2.4,1.3-5.4,2-8.3c0.2-1.1,0.5-2.4,0.8-3.7C326.2,261.5,358.8,261.5,385.3,261.5 M385.3,251.5c-28.7,0-64.7,0-92.8,0
			c-2.5,0-5,22.7-7.3,22.7c-0.4,0-1,0-1.6,0c-1.6,0-3.5,0-5,0c-0.5,0-1,0-1.4,0c0,0,0,0,0,0c-2.8,0-3.5-22.7-6-22.7
			c-15.1,0-24.9,0-25,0c-47.7,0-86.3,38.7-86.3,86.3s38.7,86.3,86.3,86.3s82.7-37,82.7-84.7c0-2.1,2.6-6.1,3.4-8
			c11.1-24.2,115.4-34,117.2-47.3c4-28.5,4.2-31.2-14.7-32.7C434.2,251.5,413.2,251.5,385.3,251.5L385.3,251.5z"/>
	</g>
	<g>
		<path class="st0" d="M149.6,356.1c-8.5,0-15.4-6.9-15.4-15.4s6.9-15.4,15.4-15.4s15.4,6.9,15.4,15.4S158.1,356.1,149.6,356.1z"/>
		<path d="M149.6,330.2c5.8,0,10.4,4.7,10.4,10.4s-4.7,10.4-10.4,10.4s-10.4-4.7-10.4-10.4S143.8,330.2,149.6,330.2 M149.6,320.2
			c-11.3,0-20.4,9.2-20.4,20.4c0,11.3,9.2,20.4,20.4,20.4S170,352,170,340.7C170,329.4,160.8,320.2,149.6,320.2L149.6,320.2z"/>
	</g>
</g>
<g>
	<g>
		<rect x="279.3" y="138.9" class="st1" width="2.9" height="84.1"/>
		<path d="M282.6,133.9H279c-2.6,0-4.7,2.1-4.7,4.7v84.8c0,2.6,2.1,4.7,4.7,4.7h3.6c2.6,0,4.7-2.1,4.7-4.7v-84.8
			C287.2,136,285.1,133.9,282.6,133.9L282.6,133.9z"/>
	</g>
	<g>
		
			<rect x="216.2" y="150" transform="matrix(0.707 -0.7072 0.7072 0.707 -72.0219 210.1788)" class="st1" width="2.9" height="84.1"/>
		<path d="M189,156.1c-1.2,0-2.4,0.5-3.3,1.4l-2.5,2.5c-1.8,1.8-1.8,4.8,0,6.6l59.9,59.9c0.9,0.9,2.1,1.4,3.3,1.4
			c1.2,0,2.4-0.5,3.3-1.4l2.5-2.5c1.8-1.8,1.8-4.8,0-6.6l-59.9-59.9C191.3,156.6,190.2,156.1,189,156.1L189,156.1z"/>
	</g>
	<g>
		
			<rect x="304.3" y="190.6" transform="matrix(0.7071 -0.7071 0.7071 0.7071 -34.3273 301.1527)" class="st1" width="84.1" height="2.9"/>
		<path d="M375.1,156.1c-1.2,0-2.4,0.5-3.3,1.4l-59.9,59.9c-1.8,1.8-1.8,4.8,0,6.6l2.5,2.5c0.9,0.9,2.1,1.4,3.3,1.4s2.4-0.5,3.3-1.4
			l59.9-59.9c1.8-1.8,1.8-4.8,0-6.6l-2.5-2.5C377.4,156.6,376.3,156.1,375.1,156.1L375.1,156.1z"/>
	</g>
</g>
</svg>
