<?xml version="1.0" encoding="utf-8"?>
<!-- Generator: Adobe Illustrator 20.1.0, SVG Export Plug-In . SVG Version: 6.00 Build 0)  -->
<svg version="1.1" id="Layer_1" xmlns="http://www.w3.org/2000/svg" xmlns:xlink="http://www.w3.org/1999/xlink" x="0px" y="0px"
	 viewBox="0 0 560 560" style="enable-background:new 0 0 560 560;" xml:space="preserve">
<style type="text/css">
	.st0{fill:#CDB449;}
	.st1{fill:#FFFFFF;}
</style>
<g>
	<polygon class="st0" points="64.9,410.4 64.9,161.9 280.1,37.7 495.3,161.9 495.3,410.4 280.1,534.7 	"/>
	<path d="M280.1,46.9l207.2,119.6v239.3L280.1,525.5L72.9,405.8V166.6L280.1,46.9 M280.1,28.5L56.9,157.3v257.7l223.2,128.9
		l223.2-128.9V157.3L280.1,28.5L280.1,28.5z"/>
</g>
<g>
	<g>
		<path class="st1" d="M282.5,251.3c-16,0-29.1-13-29.1-29.1s13-29.1,29.1-29.1s29.1,13,29.1,29.1S298.6,251.3,282.5,251.3z"/>
		<path d="M282.5,197.1c13.8,0,25.1,11.3,25.1,25.1s-11.3,25.1-25.1,25.1s-25.1-11.3-25.1-25.1S268.7,197.1,282.5,197.1
			 M282.5,189.1c-18.3,0-33.1,14.8-33.1,33.1s14.8,33.1,33.1,33.1s33.1-14.8,33.1-33.1S300.8,189.1,282.5,189.1L282.5,189.1z"/>
	</g>
	<g>
		<path class="st1" d="M245.2,352.3c-2.5,0-4.6-1.7-4.6-3.8v-66.7c0.2-0.5,0.4-1,0.6-1.5c0,0,0.6-1.3,1.4-2.5
			c1.3-2.1,4.4-5.6,6.1-7.1c13-11.6,29.1-13.4,29.3-13.4c1.4-0.1,2.9-0.2,4.3-0.2c15.4,0,31.3,8.2,40.5,20.8c0.8,1.3,1.4,2.6,1.9,4
			v66.7c0,2-2.1,3.8-4.6,3.8H245.2z"/>
		<path d="M282.2,253.1l0,8h0c14.1,0,28.6,7.4,37.1,19c0.5,0.8,0.9,1.7,1.2,2.5v65.5c-0.1,0.1-0.3,0.1-0.6,0.1h-74.7
			c-0.3,0-0.5-0.1-0.6-0.1v-65.6c0.1-0.2,0.1-0.4,0.2-0.5c0-0.1,0.5-1.1,1.1-2c1-1.6,3.7-4.8,5.4-6.3c11.8-10.5,26.6-12.4,27-12.4
			c1.3-0.1,2.6-0.2,3.9-0.2L282.2,253.1 M282.2,253.1c-1.6,0-3.2,0.1-4.7,0.2c0,0-17.4,1.8-31.5,14.4c-2,1.8-5.3,5.5-6.8,8
			c-1,1.6-1.6,3-1.6,3c-0.4,0.9-0.7,1.8-0.9,2.4v67.3c0,4.3,3.9,7.8,8.6,7.8h74.7c4.7,0,8.6-3.5,8.6-7.8v-67.3
			c-0.5-1.5-1.3-3.4-2.5-5.5C315.9,261.7,298.8,253.1,282.2,253.1L282.2,253.1z"/>
	</g>
	<g>
		<path class="st1" d="M265.1,437.7c-4.4,0-8-3.6-8-8v-66.9c0-4.4,3.6-8,8-8h34.8c4.4,0,8,3.6,8,8v66.9c0,4.4-3.6,8-8,8H265.1z"/>
		<path d="M299.9,358.8c2.2,0,4,1.8,4,4v66.9c0,2.2-1.8,4-4,4h-34.8c-2.2,0-4-1.8-4-4v-66.9c0-2.2,1.8-4,4-4H299.9 M299.9,350.8
			h-34.8c-6.6,0-12,5.4-12,12v66.9c0,6.6,5.4,12,12,12h34.8c6.6,0,12-5.4,12-12v-66.9C311.9,356.2,306.5,350.8,299.9,350.8
			L299.9,350.8z"/>
	</g>
	<g>
		<rect x="281.3" y="355.5" class="st1" width="0.5" height="82.4"/>
		<path d="M282.1,354H281c-0.7,0-1.2,0.5-1.2,1.2v83c0,0.7,0.5,1.2,1.2,1.2h1.1c0.7,0,1.2-0.5,1.2-1.2v-83
			C283.3,354.5,282.8,354,282.1,354L282.1,354z"/>
	</g>
	<g>
		<path class="st1" d="M298.5,369.2h-32c-3,0-5.4-2.4-5.4-5.4v-17.2c0-3,2.4-5.4,5.4-5.4h32c3,0,5.4,2.4,5.4,5.4v17.2
			C303.9,366.8,301.4,369.2,298.5,369.2z"/>
	</g>
</g>
<g>
	<g>
		<path class="st1" d="M385.9,219.5c-16,0-29.1-13-29.1-29.1s13-29.1,29.1-29.1s29.1,13,29.1,29.1S401.9,219.5,385.9,219.5z"/>
		<path d="M385.9,165.4c13.8,0,25.1,11.3,25.1,25.1s-11.3,25.1-25.1,25.1s-25.1-11.3-25.1-25.1S372,165.4,385.9,165.4 M385.9,157.4
			c-18.3,0-33.1,14.8-33.1,33.1s14.8,33.1,33.1,33.1s33.1-14.8,33.1-33.1S404.1,157.4,385.9,157.4L385.9,157.4z"/>
	</g>
	<g>
		<path class="st1" d="M348.5,320.5c-2.5,0-4.6-1.7-4.6-3.8V250c0.2-0.5,0.4-1,0.6-1.5c0,0,0.6-1.3,1.4-2.5c1.3-2.1,4.4-5.6,6.1-7.1
			c13-11.6,29.1-13.4,29.3-13.4c1.4-0.1,2.9-0.2,4.3-0.2c15.4,0,31.3,8.2,40.5,20.8c0.8,1.3,1.4,2.6,1.9,4v66.7c0,2-2.1,3.8-4.6,3.8
			H348.5z"/>
		<path d="M385.5,221.3l0,8h0c14.1,0,28.6,7.4,37.1,19c0.5,0.8,0.9,1.7,1.2,2.5v65.5c-0.1,0.1-0.3,0.1-0.6,0.1h-74.7
			c-0.3,0-0.5-0.1-0.6-0.1v-65.6c0.1-0.2,0.1-0.4,0.2-0.5c0-0.1,0.5-1.1,1.1-2c1-1.6,3.7-4.8,5.4-6.3c11.8-10.5,26.6-12.4,27-12.4
			c1.3-0.1,2.6-0.2,3.9-0.2L385.5,221.3 M385.5,221.3c-1.6,0-3.2,0.1-4.7,0.2c0,0-17.4,1.8-31.5,14.4c-2,1.8-5.3,5.5-6.8,8
			c-1,1.6-1.6,3-1.6,3c-0.4,0.9-0.7,1.8-0.9,2.4v67.3c0,4.3,3.9,7.8,8.6,7.8h74.7c4.7,0,8.6-3.5,8.6-7.8v-67.3
			c-0.5-1.5-1.3-3.4-2.5-5.5C419.2,230,402.1,221.3,385.5,221.3L385.5,221.3z"/>
	</g>
	<g>
		<path class="st1" d="M368.5,405.9c-4.4,0-8-3.6-8-8V331c0-4.4,3.6-8,8-8h34.8c4.4,0,8,3.6,8,8v66.9c0,4.4-3.6,8-8,8H368.5z"/>
		<path d="M403.3,327c2.2,0,4,1.8,4,4v66.9c0,2.2-1.8,4-4,4h-34.8c-2.2,0-4-1.8-4-4V331c0-2.2,1.8-4,4-4H403.3 M403.3,319h-34.8
			c-6.6,0-12,5.4-12,12v66.9c0,6.6,5.4,12,12,12h34.8c6.6,0,12-5.4,12-12V331C415.3,324.4,409.9,319,403.3,319L403.3,319z"/>
	</g>
	<g>
		<rect x="384.6" y="323.7" class="st1" width="0.5" height="82.4"/>
		<path d="M385.5,322.2h-1.1c-0.7,0-1.2,0.5-1.2,1.2v83c0,0.7,0.5,1.2,1.2,1.2h1.1c0.7,0,1.2-0.5,1.2-1.2v-83
			C386.7,322.8,386.1,322.2,385.5,322.2L385.5,322.2z"/>
	</g>
	<g>
		<path class="st1" d="M401.8,337.5h-31.9c-3,0-5.4-2.4-5.4-5.4v-17.2c0-3,2.4-5.4,5.4-5.4h31.9c3,0,5.4,2.4,5.4,5.4v17.2
			C407.2,335,404.8,337.5,401.8,337.5z"/>
	</g>
</g>
<g>
	<g>
		<path class="st1" d="M179.2,219.5c-16,0-29.1-13-29.1-29.1s13-29.1,29.1-29.1s29.1,13,29.1,29.1S195.2,219.5,179.2,219.5z"/>
		<path d="M179.2,165.4c13.8,0,25.1,11.3,25.1,25.1s-11.3,25.1-25.1,25.1s-25.1-11.3-25.1-25.1S165.4,165.4,179.2,165.4
			 M179.2,157.4c-18.3,0-33.1,14.8-33.1,33.1s14.8,33.1,33.1,33.1s33.1-14.8,33.1-33.1S197.5,157.4,179.2,157.4L179.2,157.4z"/>
	</g>
	<g>
		<path class="st1" d="M141.9,320.5c-2.5,0-4.6-1.7-4.6-3.8V250c0.2-0.5,0.4-1,0.6-1.5c0,0,0.6-1.3,1.4-2.5c1.3-2.1,4.4-5.6,6.1-7.1
			c13-11.6,29.1-13.4,29.3-13.4c1.4-0.1,2.9-0.2,4.3-0.2c15.4,0,31.3,8.2,40.5,20.8c0.8,1.3,1.4,2.6,1.9,4v66.7c0,2-2.1,3.8-4.6,3.8
			H141.9z"/>
		<path d="M178.8,221.3l0,8h0c14.1,0,28.6,7.4,37.1,19c0.5,0.8,0.9,1.7,1.2,2.5v65.5c-0.1,0.1-0.3,0.1-0.6,0.1h-74.7
			c-0.3,0-0.5-0.1-0.6-0.1v-65.6c0.1-0.2,0.1-0.4,0.2-0.5c0-0.1,0.5-1.1,1.1-2c1-1.6,3.7-4.8,5.4-6.3c11.8-10.5,26.6-12.4,27-12.4
			c1.3-0.1,2.6-0.2,3.9-0.2L178.8,221.3 M178.8,221.3c-1.6,0-3.2,0.1-4.7,0.2c0,0-17.4,1.8-31.5,14.4c-2,1.8-5.3,5.5-6.8,8
			c-1,1.6-1.6,3-1.6,3c-0.4,0.9-0.7,1.8-0.9,2.4v67.3c0,4.3,3.9,7.8,8.6,7.8h74.7c4.7,0,8.6-3.5,8.6-7.8v-67.3
			c-0.5-1.5-1.3-3.4-2.5-5.5C212.6,230,195.5,221.3,178.8,221.3L178.8,221.3z"/>
	</g>
	<g>
		<path class="st1" d="M161.8,405.9c-4.4,0-8-3.6-8-8V331c0-4.4,3.6-8,8-8h34.8c4.4,0,8,3.6,8,8v66.9c0,4.4-3.6,8-8,8H161.8z"/>
		<path d="M196.6,327c2.2,0,4,1.8,4,4v66.9c0,2.2-1.8,4-4,4h-34.8c-2.2,0-4-1.8-4-4V331c0-2.2,1.8-4,4-4H196.6 M196.6,319h-34.8
			c-6.6,0-12,5.4-12,12v66.9c0,6.6,5.4,12,12,12h34.8c6.6,0,12-5.4,12-12V331C208.6,324.4,203.2,319,196.6,319L196.6,319z"/>
	</g>
	<g>
		<rect x="178" y="323.7" class="st1" width="0.5" height="82.4"/>
		<path d="M178.8,322.2h-1.1c-0.7,0-1.2,0.5-1.2,1.2v83c0,0.7,0.5,1.2,1.2,1.2h1.1c0.7,0,1.2-0.5,1.2-1.2v-83
			C180,322.8,179.5,322.2,178.8,322.2L178.8,322.2z"/>
	</g>
	<g>
		<path class="st1" d="M195.1,337.5h-31.9c-3,0-5.4-2.4-5.4-5.4v-17.2c0-3,2.4-5.4,5.4-5.4h31.9c3,0,5.4,2.4,5.4,5.4v17.2
			C200.5,335,198.1,337.5,195.1,337.5z"/>
	</g>
</g>
</svg>
