<?xml version="1.0" encoding="utf-8"?>
<!-- Generator: Adobe Illustrator 20.1.0, SVG Export Plug-In . SVG Version: 6.00 Build 0)  -->
<svg version="1.1" id="Layer_1" xmlns="http://www.w3.org/2000/svg" xmlns:xlink="http://www.w3.org/1999/xlink" x="0px" y="0px"
	 viewBox="0 0 560 560" style="enable-background:new 0 0 560 560;" xml:space="preserve">
<style type="text/css">
	.st0{fill:#CDB449;}
	.st1{fill:#FFFFFF;}
</style>
<g>
	<polygon class="st0" points="58.8,413.7 58.8,165.2 274,41 489.2,165.2 489.2,413.7 274,538 	"/>
	<path d="M274,50.2l207.2,119.6v239.3L274,528.7L66.8,409.1V169.8L274,50.2 M274,31.7L50.8,160.6v257.7L274,547.2l223.2-128.9V160.6
		L274,31.7L274,31.7z"/>
</g>
<g>
	<path class="st1" d="M126,361V261c0,0,5-33,67,6.3c0,0,49.3,9.3,78.7-22l154,72.7l9.3,25.3l-3.3,12L419,361H126z"/>
	<g>
		<g>
			<path d="M272.5,368.9c-47.5,0-95.1,0-142.6,0c-8,0-10.4-2.4-10.4-10.5c0-26.4-0.1-52.8,0.1-79.3c0-6,0.4-12,2.2-17.9
				c5.4-17.8,22.4-26,39.6-18.7c5.4,2.3,10.2,5.4,13.9,9.8c6.4,7.5,14.8,10.8,24.2,11c24.3,0.6,45.9-6.8,64.2-23.1
				c3.3-2.9,6.5-3.2,10.5-1.6c23.6,9.5,46.8,20,70,30.6c23.9,10.9,47.7,22.1,71.3,33.8c1.3,0.7,2.6,1.4,3.9,2.1
				c15.1,6.9,21.2,19.3,22,35.1c0.6,12.6-4.4,21.6-14.8,26.4c-3.9,1.8-8.1,2.3-12.4,2.3C367,368.9,319.7,368.9,272.5,368.9z
				 M192.9,327.2c18.2,0,36.5,0,54.7,0.1c2.7,0,4.2-0.8,5.3-3.3c5-11.1,10.2-22.2,15.3-33.2c4.7-10.1,9.3-20.3,14-30.3
				c0.9-1.9,0.6-2.9-1.4-3.6c-2.5-0.9-4.9-1.9-7.3-3c-1.7-0.8-2.8-0.4-4.3,0.7c-20.7,15.9-44.2,24.2-70.4,23.2
				c-13.4-0.5-25.2-5.4-34.2-15.8c-3-3.5-6.9-5.9-11.5-7c-7.8-2-14.1,1.3-17,8.9c-2,5.1-2.2,10.4-2.2,15.6
				c-0.2,14.6,0,29.3-0.1,43.9c0,3.2,0.9,4.2,4.1,4.2C156.2,327.2,174.5,327.2,192.9,327.2z M280.6,341.5c-47.6,0-95.3,0-142.9,0
				c-2.9,0-4.6,0.4-3.6,3.8c0.4,1.3,0.1,2.7,0.1,4.1c0,5.1,0,5.1,5,5.1c91.6,0,183.1,0,274.7,0c1,0,1.9,0.1,2.9,0
				c4.7-0.4,8-2.7,9.7-7.1c1.7-4.3,0.6-5.8-3.9-5.9C375.3,341.5,328,341.5,280.6,341.5z M372.6,327.2c2.5,0,5.1,0,7.6,0
				c13.4,0,26.7,0,40.1,0c0.9,0,2.1,0.5,2.6-0.6c0.4-1-0.7-1.7-1.2-2.4c-1.9-2.5-4.5-4.2-7.2-5.6c-9.1-4.5-18.2-9.1-27.4-13.5
				c-14.5-6.9-29.2-13.7-43.8-20.6c-1.4-0.7-2.4-1.4-3.4,0.9c-5.5,12.7-11.3,25.4-16.9,38.1c-1.6,3.7-1.7,3.7,2.5,3.7
				C341.3,327.2,357,327.2,372.6,327.2z M273.8,327.2c3.8,1.1,5.6-1.4,7.3-5.1c7.2-15.7,14.7-31.3,22-47c3.8-8.2,4.8-6.4-4-10.5
				c-2-0.9-3-0.5-3.9,1.5c-8.5,18.6-17.1,37.2-25.6,55.8C267.1,327.3,266.2,327.3,273.8,327.2z M300.9,327.2
				c3.7,1.1,5.5-1.3,7.1-4.9c5.7-13.2,11.8-26.3,17.7-39.5c0.8-1.7,2.9-3.5,2.1-4.9c-0.7-1.4-3.3-1.6-4.9-2.6
				c-2.6-1.6-3.8-0.8-5,1.8c-6.9,15-14,29.9-21.1,44.9C294.4,327.2,294.4,327.2,300.9,327.2z"/>
		</g>
	</g>
</g>
</svg>
