<?xml version="1.0" encoding="utf-8"?>
<!-- Generator: Adobe Illustrator 21.0.0, SVG Export Plug-In . SVG Version: 6.00 Build 0)  -->
<svg version="1.1" id="Layer_1" xmlns="http://www.w3.org/2000/svg" xmlns:xlink="http://www.w3.org/1999/xlink" x="0px" y="0px"
	 viewBox="0 0 560 560" style="enable-background:new 0 0 560 560;" xml:space="preserve">
<style type="text/css">
	.st0{fill:#CDB449;}
	.st1{display:none;}
	.st2{display:inline;}
	.st3{fill:#FFFFFF;}
	.st4{fill:#FFFFFF;stroke:#000000;stroke-width:9;stroke-miterlimit:10;}
	.st5{fill:#CDB449;stroke:#000000;stroke-width:16;stroke-miterlimit:10;}
</style>
<g>
	<polygon class="st0" points="64.8,410.4 64.8,161.9 280,37.6 495.2,161.9 495.2,410.4 280,534.6 	"/>
	<path d="M280,46.9l207.2,119.6v239.3L280,525.4L72.8,405.8V166.5L280,46.9 M280,28.4L56.8,157.3V415L280,543.9L503.2,415V157.3
		L280,28.4L280,28.4z"/>
</g>
<g class="st1">
	<g class="st2">
		<path class="st3" d="M280,213.5c-21,0-38-17-38-38s17-38,38-38s38,17,38,38S301,213.5,280,213.5z"/>
		<path d="M280,140c19.6,0,35.5,15.9,35.5,35.5S299.6,211,280,211s-35.5-15.9-35.5-35.5S260.4,140,280,140 M280,135
			c-22.4,0-40.5,18.1-40.5,40.5S257.6,216,280,216c22.4,0,40.5-18.1,40.5-40.5S302.4,135,280,135L280,135z"/>
	</g>
	<g class="st2">
		<path class="st3" d="M234.3,337.2c-4.4,0-8.1-3.1-8.1-7v-82.1c0.3-0.8,0.6-1.6,0.9-2.4c0,0,0.8-1.7,1.8-3.4
			c1.8-2.8,5.6-7.2,7.9-9.2c16.5-14.8,37-17,37.2-17c1.8-0.2,3.7-0.3,5.5-0.3c19.6,0,39.9,10.4,51.5,26.5c1.1,1.8,2,3.8,2.7,5.8v82
			c0,3.9-3.6,7-8.1,7H234.3z"/>
		<path d="M279.5,218.3c18.8,0,38.2,10,49.5,25.4c0.9,1.6,1.7,3.2,2.3,4.8v81.6c0,2.4-2.5,4.5-5.6,4.5h-91.4c-3,0-5.6-2.1-5.6-4.5
			v-81.7c0.2-0.6,0.4-1.2,0.7-1.8c0-0.1,0.7-1.6,1.7-3.1c1.6-2.6,5.3-6.8,7.4-8.7c15.7-14.1,35.5-16.4,35.8-16.4
			C276,218.4,277.8,218.3,279.5,218.3L279.5,218.3 M279.5,213.3c-1.9,0-3.9,0.1-5.8,0.3c0,0-21.3,2.2-38.6,17.6
			c-2.5,2.2-6.5,6.8-8.3,9.7c-1.2,1.9-2,3.7-2,3.7c-0.5,1.1-0.9,2.2-1.1,3v82.4c0,5.2,4.7,9.5,10.6,9.5h91.4
			c5.8,0,10.6-4.3,10.6-9.5v-82.4c-0.6-1.8-1.5-4.1-3.1-6.7C320.8,223.9,299.9,213.3,279.5,213.3L279.5,213.3z"/>
	</g>
	<g class="st2">
		<path class="st3" d="M256,441.3c-5,0-9-4-9-9v-87.3c0-5,4-9,9-9h48c5,0,9,4,9,9v87.3c0,5-4,9-9,9H256z"/>
		<path d="M304,338.9c3.3,0,6,2.7,6,6v87.3c0,3.3-2.7,6-6,6h-48c-3.3,0-6-2.7-6-6v-87.3c0-3.3,2.7-6,6-6H304 M304,332.9h-48
			c-6.6,0-12,5.4-12,12v87.3c0,6.6,5.4,12,12,12h48c6.6,0,12-5.4,12-12v-87.3C316,338.3,310.6,332.9,304,332.9L304,332.9z"/>
	</g>
	<g class="st2">
		<path class="st3" d="M298,357.5h-36c-6.6,0-12-5.4-12-12v-13c0-6.6,5.4-12,12-12h36c6.6,0,12,5.4,12,12v13
			C310,352.1,304.6,357.5,298,357.5z"/>
	</g>
	<g class="st2">
		<path class="st3" d="M280.3,440.8c-0.4,0-0.7-0.3-0.7-0.7V339.8c0-0.4,0.3-0.7,0.7-0.7s0.7,0.3,0.7,0.7v100.3
			C281,440.5,280.7,440.8,280.3,440.8z"/>
		<path d="M280.3,337.7c-1.2,0-2.2,1-2.2,2.2v100.3c0,1.2,1,2.2,2.2,2.2c1.2,0,2.2-1,2.2-2.2V339.8
			C282.5,338.6,281.5,337.7,280.3,337.7L280.3,337.7z"/>
	</g>
</g>
<g id="Layer_2">
	<path class="st4" d="M154.7,199h28h222.7c0,0,12-2.7,12,12s0,164,0,164s2,10-10,10s-252.7,0-252.7,0s-10,1.3-10-10s0-167.3,0-167.3
		S146,199,154.7,199z"/>
	<path class="st4" d="M278.6,293.1l137-90.2L278.6,293.1z"/>
	<line class="st4" x1="146.7" y1="203" x2="283.1" y2="292.9"/>
	<line class="st4" x1="148.8" y1="380.5" x2="255.4" y2="273.9"/>
	<line class="st4" x1="413.6" y1="380.5" x2="305.6" y2="272.5"/>
</g>
<path class="st5" d="M146.5,375"/>
</svg>
