<?xml version="1.0" encoding="utf-8"?>
<!-- Generator: Adobe Illustrator 20.1.0, SVG Export Plug-In . SVG Version: 6.00 Build 0)  -->
<svg version="1.1" id="Layer_1" xmlns="http://www.w3.org/2000/svg" xmlns:xlink="http://www.w3.org/1999/xlink" x="0px" y="0px"
	 viewBox="0 0 560 560" style="enable-background:new 0 0 560 560;" xml:space="preserve">
<style type="text/css">
	.st0{fill:#CDB449;}
	.st1{stroke:#000000;stroke-width:0.25;stroke-miterlimit:10;}
	.st2{fill:#FFFFFF;stroke:#000000;stroke-width:10;stroke-miterlimit:10;}
	.st3{display:none;stroke:#000000;stroke-width:0.25;stroke-miterlimit:10;}
</style>
<g>
	<polygon class="st0" points="58.9,413.7 58.9,165.2 274.1,41 489.3,165.2 489.3,413.7 274.1,538 	"/>
	<path d="M274.1,50.2l207.2,119.6v239.3L274.1,528.7L66.9,409.1V169.8L274.1,50.2 M274.1,31.7L50.9,160.6v257.7l223.2,128.9
		l223.2-128.9V160.6L274.1,31.7L274.1,31.7z"/>
</g>
<path class="st1" d="M276,284.1"/>
<g>
	<g>
		<path class="st2" d="M363.5,384.2c0,13.2-39.6,23.9-88.5,23.9s-88.5-10.7-88.5-23.9c0-0.4,0-62.3,0.1-62.7
			c2.3-12.6,41-18.4,88.4-18.4c46.7,0,85,4.8,88.3,17.2C363.5,321,363.5,383.7,363.5,384.2z"/>
		<path class="st3" d="M168.3,302.6c1.4,2.4,4.8,3.2,7.5,1.6l72.6-42.6c2.7-1.6,3.7-4.9,2.2-7.3c-1.4-2.4-4.8-3.2-7.5-1.6
			l-72.6,42.6C167.8,296.9,166.8,300.2,168.3,302.6z"/>
		<polygon class="st2" points="103.6,275.3 275.5,190.6 448.6,272.3 276.1,355.7 		"/>
	</g>
	<g>
		<path class="st1" d="M410.1,396c2.9,0,5.3-2.9,5.3-6.3l-0.6-93.8c0-3.4-2.4-6.3-5.4-6.2c-2.9,0-5.3,2.9-5.3,6.3l0.6,93.8
			C404.8,393.2,407.2,396,410.1,396z"/>
		<g>
			<path class="st0" d="M409.8,411.4c-3.2,0-5.4-2-5.4-3.8v-23.2c0-1.8,2.2-3.8,5.4-3.8s5.4,2,5.4,3.8l0,23.4
				c-0.1,0.4-0.3,1.3-1.2,2.2C412.4,411.3,410.1,411.4,409.8,411.4z"/>
			<path d="M409.8,372.6L409.8,372.6c-7.4,0-13.4,5.3-13.4,11.8v23.2c0,6.5,6,11.8,13.4,11.8h0c0.9,0,5.7-0.1,9.5-3.5
				c3.6-3.2,3.9-7,4-7.9c0-7.9,0-15.8,0-23.7C423.2,377.9,417.2,372.6,409.8,372.6L409.8,372.6z"/>
		</g>
	</g>
</g>
</svg>
