<?xml version="1.0" encoding="utf-8"?>
<!-- Generator: Adobe Illustrator 20.1.0, SVG Export Plug-In . SVG Version: 6.00 Build 0)  -->
<svg version="1.1" id="Layer_1" xmlns="http://www.w3.org/2000/svg" xmlns:xlink="http://www.w3.org/1999/xlink" x="0px" y="0px"
	 viewBox="0 0 560 560" style="enable-background:new 0 0 560 560;" xml:space="preserve">
<style type="text/css">
	.st0{fill:#CDB449;}
	.st1{fill:#FFFFFF;stroke:#000000;stroke-width:7;stroke-miterlimit:10;}
</style>
<g>
	<polygon class="st0" points="58.8,413.7 58.8,165.2 274,41 489.2,165.2 489.2,413.7 274,538 	"/>
	<path d="M274,50.2l207.2,119.6v239.3L274,528.7L66.8,409.1V169.8L274,50.2 M274,31.7L50.8,160.6v257.7L274,547.2l223.2-128.9V160.6
		L274,31.7L274,31.7z"/>
</g>
<g>
	<path class="st1" d="M317.9,285.8h-5.5c-3.5,0-6.3-2.9-6.3-6.3V174.8c0-3.5,2.8-6.3,6.3-6.3h5.5c3.5,0,6.3,2.8,6.3,6.3v104.7
		C324.2,283,321.3,285.8,317.9,285.8z"/>
	<path class="st1" d="M348.4,285.8h-5.5c-3.5,0-6.3-2.9-6.3-6.3V174.8c0-3.5,2.8-6.3,6.3-6.3h5.5c3.5,0,6.3,2.8,6.3,6.3v104.7
		C354.7,283,351.9,285.8,348.4,285.8z"/>
	<path class="st1" d="M378.9,285.8h-5.5c-3.5,0-6.3-2.9-6.3-6.3V174.8c0-3.5,2.9-6.3,6.3-6.3h5.5c3.5,0,6.3,2.8,6.3,6.3v104.7
		C385.2,283,382.4,285.8,378.9,285.8z"/>
	<path class="st1" d="M409.4,285.8H404c-3.5,0-6.3-2.9-6.3-6.3V174.8c0-3.5,2.9-6.3,6.3-6.3h5.5c3.5,0,6.3,2.8,6.3,6.3v104.7
		C415.7,283,412.9,285.8,409.4,285.8z"/>
	<path class="st1" d="M285.7,276.9l-2.7-4.7c-1.7-3-0.7-6.9,2.3-8.7l146-84.3c3-1.7,6.9-0.7,8.7,2.3l2.7,4.7c1.7,3,0.7,6.9-2.3,8.7
		l-146,84.3C291.3,280.9,287.5,279.9,285.7,276.9z"/>
</g>
<g>
	<path class="st1" d="M162.9,412.2h-5.5c-3.5,0-6.3-2.8-6.3-6.3V301.2c0-3.5,2.9-6.3,6.3-6.3h5.5c3.5,0,6.3,2.9,6.3,6.3v104.7
		C169.3,409.3,166.4,412.2,162.9,412.2z"/>
	<path class="st1" d="M193.5,412.2H188c-3.5,0-6.3-2.8-6.3-6.3V301.2c0-3.5,2.8-6.3,6.3-6.3h5.5c3.5,0,6.3,2.9,6.3,6.3v104.7
		C199.8,409.3,196.9,412.2,193.5,412.2z"/>
	<path class="st1" d="M224,412.2h-5.5c-3.5,0-6.3-2.8-6.3-6.3V301.2c0-3.5,2.8-6.3,6.3-6.3h5.5c3.5,0,6.3,2.9,6.3,6.3v104.7
		C230.3,409.3,227.5,412.2,224,412.2z"/>
	<path class="st1" d="M254.5,412.2H249c-3.5,0-6.3-2.8-6.3-6.3V301.2c0-3.5,2.9-6.3,6.3-6.3h5.5c3.5,0,6.3,2.9,6.3,6.3v104.7
		C260.8,409.3,258,412.2,254.5,412.2z"/>
	<path class="st1" d="M130.8,403.2l-2.7-4.7c-1.7-3-0.7-6.9,2.3-8.7l146-84.3c3-1.7,6.9-0.7,8.7,2.3l2.7,4.7c1.7,3,0.7,6.9-2.3,8.7
		l-146,84.3C136.4,407.3,132.5,406.2,130.8,403.2z"/>
</g>
</svg>
